<mxfile host="app.diagrams.net" modified="2023-10-03T09:00:21.612Z" agent="Mozilla/5.0 (X11; Linux x86_64; Chromium GOST) AppleWebKit/537.36 (KHTML, like Gecko) Chrome/110.0.0.0 Safari/537.36" etag="VdHgEOQ0XTC3lXe1JSrQ" version="22.0.1" type="github">
  <diagram id="C5RBs43oDa-KdzZeNtuy" name="Page-1">
    <mxGraphModel dx="1434" dy="755" grid="1" gridSize="10" guides="1" tooltips="1" connect="1" arrows="1" fold="1" page="1" pageScale="1" pageWidth="1654" pageHeight="1169" math="0" shadow="0">
      <root>
        <mxCell id="WIyWlLk6GJQsqaUBKTNV-0" />
        <mxCell id="WIyWlLk6GJQsqaUBKTNV-1" parent="WIyWlLk6GJQsqaUBKTNV-0" />
        <mxCell id="zkfFHV4jXpPFQw0GAbJ--0" value="StateHandler" style="swimlane;fontStyle=3;align=center;verticalAlign=top;childLayout=stackLayout;horizontal=1;startSize=36;horizontalStack=0;resizeParent=1;resizeLast=0;collapsible=1;marginBottom=0;rounded=0;shadow=0;strokeWidth=1;" parent="WIyWlLk6GJQsqaUBKTNV-1" vertex="1">
          <mxGeometry x="520" y="120" width="560" height="280" as="geometry">
            <mxRectangle x="-5" y="460" width="160" height="36" as="alternateBounds" />
          </mxGeometry>
        </mxCell>
        <mxCell id="zkfFHV4jXpPFQw0GAbJ--1" value="# cnt" style="text;align=left;verticalAlign=top;spacingLeft=4;spacingRight=4;overflow=hidden;rotatable=0;points=[[0,0.5],[1,0.5]];portConstraint=eastwest;" parent="zkfFHV4jXpPFQw0GAbJ--0" vertex="1">
          <mxGeometry y="36" width="560" height="24" as="geometry" />
        </mxCell>
        <mxCell id="zkfFHV4jXpPFQw0GAbJ--4" value="" style="line;html=1;strokeWidth=1;align=left;verticalAlign=middle;spacingTop=-1;spacingLeft=3;spacingRight=3;rotatable=0;labelPosition=right;points=[];portConstraint=eastwest;" parent="zkfFHV4jXpPFQw0GAbJ--0" vertex="1">
          <mxGeometry y="60" width="560" height="10" as="geometry" />
        </mxCell>
        <mxCell id="zkfFHV4jXpPFQw0GAbJ--5" value="&lt;&lt;abstract&gt;&gt; validate(tgt: S): Status" style="text;align=left;verticalAlign=top;spacingLeft=4;spacingRight=4;overflow=hidden;rotatable=0;points=[[0,0.5],[1,0.5]];portConstraint=eastwest;" parent="zkfFHV4jXpPFQw0GAbJ--0" vertex="1">
          <mxGeometry y="70" width="560" height="26" as="geometry" />
        </mxCell>
        <mxCell id="zqKWcog5aO0XvaUyvHrO-3" value="+ addError(tgt:Â Verifiable, e: string): void" style="text;align=left;verticalAlign=top;spacingLeft=4;spacingRight=4;overflow=hidden;rotatable=0;points=[[0,0.5],[1,0.5]];portConstraint=eastwest;" parent="zkfFHV4jXpPFQw0GAbJ--0" vertex="1">
          <mxGeometry y="96" width="560" height="26" as="geometry" />
        </mxCell>
        <mxCell id="zqKWcog5aO0XvaUyvHrO-4" value="+ addWarning(tgt: Verifiable, w: string): void" style="text;align=left;verticalAlign=top;spacingLeft=4;spacingRight=4;overflow=hidden;rotatable=0;points=[[0,0.5],[1,0.5]];portConstraint=eastwest;" parent="zkfFHV4jXpPFQw0GAbJ--0" vertex="1">
          <mxGeometry y="122" width="560" height="26" as="geometry" />
        </mxCell>
        <mxCell id="zqKWcog5aO0XvaUyvHrO-6" value="+ transferStatus(tgt: Verifiable, src: Verifiable): void" style="text;align=left;verticalAlign=top;spacingLeft=4;spacingRight=4;overflow=hidden;rotatable=0;points=[[0,0.5],[1,0.5]];portConstraint=eastwest;" parent="zkfFHV4jXpPFQw0GAbJ--0" vertex="1">
          <mxGeometry y="148" width="560" height="26" as="geometry" />
        </mxCell>
        <mxCell id="zqKWcog5aO0XvaUyvHrO-7" value="+ check(tgt: Verifiable,condition: boolean, status: Status.Error | Status.Warning, msg: string): boolean" style="text;align=left;verticalAlign=top;spacingLeft=4;spacingRight=4;overflow=hidden;rotatable=0;points=[[0,0.5],[1,0.5]];portConstraint=eastwest;" parent="zkfFHV4jXpPFQw0GAbJ--0" vertex="1">
          <mxGeometry y="174" width="560" height="26" as="geometry" />
        </mxCell>
        <mxCell id="zqKWcog5aO0XvaUyvHrO-8" value="+ reset(tgt: Verifiable): void" style="text;align=left;verticalAlign=top;spacingLeft=4;spacingRight=4;overflow=hidden;rotatable=0;points=[[0,0.5],[1,0.5]];portConstraint=eastwest;" parent="zkfFHV4jXpPFQw0GAbJ--0" vertex="1">
          <mxGeometry y="200" width="560" height="26" as="geometry" />
        </mxCell>
        <mxCell id="zqKWcog5aO0XvaUyvHrO-9" value="+ parseNumber(s: string): number" style="text;align=left;verticalAlign=top;spacingLeft=4;spacingRight=4;overflow=hidden;rotatable=0;points=[[0,0.5],[1,0.5]];portConstraint=eastwest;" parent="zkfFHV4jXpPFQw0GAbJ--0" vertex="1">
          <mxGeometry y="226" width="560" height="26" as="geometry" />
        </mxCell>
        <mxCell id="zqKWcog5aO0XvaUyvHrO-10" value="+ tryParseNumber(s: string): number | null" style="text;align=left;verticalAlign=top;spacingLeft=4;spacingRight=4;overflow=hidden;rotatable=0;points=[[0,0.5],[1,0.5]];portConstraint=eastwest;" parent="zkfFHV4jXpPFQw0GAbJ--0" vertex="1">
          <mxGeometry y="252" width="560" height="26" as="geometry" />
        </mxCell>
        <mxCell id="zqKWcog5aO0XvaUyvHrO-0" value="+ public&lt;br&gt;- private&lt;br&gt;# protected" style="text;html=1;align=left;verticalAlign=middle;resizable=0;points=[];autosize=1;strokeColor=none;fillColor=none;" parent="WIyWlLk6GJQsqaUBKTNV-1" vertex="1">
          <mxGeometry width="80" height="60" as="geometry" />
        </mxCell>
        <mxCell id="zqKWcog5aO0XvaUyvHrO-13" value="&lt;&lt;Interface&gt;&gt;&#xa;Verifiable" style="swimlane;fontStyle=1;align=center;verticalAlign=top;childLayout=stackLayout;horizontal=1;startSize=40;horizontalStack=0;resizeParent=1;resizeLast=0;collapsible=1;marginBottom=0;rounded=0;shadow=0;strokeWidth=1;" parent="WIyWlLk6GJQsqaUBKTNV-1" vertex="1">
          <mxGeometry x="240" y="120" width="160" height="120" as="geometry">
            <mxRectangle x="255" y="240" width="160" height="26" as="alternateBounds" />
          </mxGeometry>
        </mxCell>
        <mxCell id="zqKWcog5aO0XvaUyvHrO-24" value="+ status: Status" style="text;align=left;verticalAlign=top;spacingLeft=4;spacingRight=4;overflow=hidden;rotatable=0;points=[[0,0.5],[1,0.5]];portConstraint=eastwest;" parent="zqKWcog5aO0XvaUyvHrO-13" vertex="1">
          <mxGeometry y="40" width="160" height="24" as="geometry" />
        </mxCell>
        <mxCell id="zqKWcog5aO0XvaUyvHrO-25" value="+ what?: string[]" style="text;align=left;verticalAlign=top;spacingLeft=4;spacingRight=4;overflow=hidden;rotatable=0;points=[[0,0.5],[1,0.5]];portConstraint=eastwest;" parent="zqKWcog5aO0XvaUyvHrO-13" vertex="1">
          <mxGeometry y="64" width="160" height="24" as="geometry" />
        </mxCell>
        <mxCell id="zqKWcog5aO0XvaUyvHrO-14" value="+ handle: number" style="text;align=left;verticalAlign=top;spacingLeft=4;spacingRight=4;overflow=hidden;rotatable=0;points=[[0,0.5],[1,0.5]];portConstraint=eastwest;" parent="zqKWcog5aO0XvaUyvHrO-13" vertex="1">
          <mxGeometry y="88" width="160" height="24" as="geometry" />
        </mxCell>
        <mxCell id="zqKWcog5aO0XvaUyvHrO-29" value="&lt;b&gt;&amp;lt;&amp;lt;enumeration&amp;gt;&amp;gt;&lt;br&gt;Status&lt;/b&gt;" style="swimlane;fontStyle=0;childLayout=stackLayout;horizontal=1;startSize=42;fillColor=none;horizontalStack=0;resizeParent=1;resizeParentMax=0;resizeLast=0;collapsible=1;marginBottom=0;whiteSpace=wrap;html=1;" parent="WIyWlLk6GJQsqaUBKTNV-1" vertex="1">
          <mxGeometry x="40" y="120" width="120" height="120" as="geometry">
            <mxRectangle x="220" y="208" width="140" height="42" as="alternateBounds" />
          </mxGeometry>
        </mxCell>
        <mxCell id="zqKWcog5aO0XvaUyvHrO-30" value="Ok = 0" style="text;strokeColor=none;fillColor=none;align=left;verticalAlign=top;spacingLeft=4;spacingRight=4;overflow=hidden;rotatable=0;points=[[0,0.5],[1,0.5]];portConstraint=eastwest;whiteSpace=wrap;html=1;" parent="zqKWcog5aO0XvaUyvHrO-29" vertex="1">
          <mxGeometry y="42" width="120" height="26" as="geometry" />
        </mxCell>
        <mxCell id="zqKWcog5aO0XvaUyvHrO-31" value="Warning = 1" style="text;strokeColor=none;fillColor=none;align=left;verticalAlign=top;spacingLeft=4;spacingRight=4;overflow=hidden;rotatable=0;points=[[0,0.5],[1,0.5]];portConstraint=eastwest;whiteSpace=wrap;html=1;" parent="zqKWcog5aO0XvaUyvHrO-29" vertex="1">
          <mxGeometry y="68" width="120" height="26" as="geometry" />
        </mxCell>
        <mxCell id="zqKWcog5aO0XvaUyvHrO-32" value="Error = 2" style="text;strokeColor=none;fillColor=none;align=left;verticalAlign=top;spacingLeft=4;spacingRight=4;overflow=hidden;rotatable=0;points=[[0,0.5],[1,0.5]];portConstraint=eastwest;whiteSpace=wrap;html=1;" parent="zqKWcog5aO0XvaUyvHrO-29" vertex="1">
          <mxGeometry y="94" width="120" height="26" as="geometry" />
        </mxCell>
        <mxCell id="zpq8vRSItgAAJAuEnpTP-1" value="StringStateHandler" style="swimlane;fontStyle=3;align=center;verticalAlign=top;childLayout=stackLayout;horizontal=1;startSize=36;horizontalStack=0;resizeParent=1;resizeLast=0;collapsible=1;marginBottom=0;rounded=0;shadow=0;strokeWidth=1;" parent="WIyWlLk6GJQsqaUBKTNV-1" vertex="1">
          <mxGeometry x="520" y="480" width="560" height="360" as="geometry">
            <mxRectangle x="-5" y="460" width="160" height="36" as="alternateBounds" />
          </mxGeometry>
        </mxCell>
        <mxCell id="zpq8vRSItgAAJAuEnpTP-2" value="-" style="text;align=left;verticalAlign=top;spacingLeft=4;spacingRight=4;overflow=hidden;rotatable=0;points=[[0,0.5],[1,0.5]];portConstraint=eastwest;" parent="zpq8vRSItgAAJAuEnpTP-1" vertex="1">
          <mxGeometry y="36" width="560" height="24" as="geometry" />
        </mxCell>
        <mxCell id="zpq8vRSItgAAJAuEnpTP-3" value="" style="line;html=1;strokeWidth=1;align=left;verticalAlign=middle;spacingTop=-1;spacingLeft=3;spacingRight=3;rotatable=0;labelPosition=right;points=[];portConstraint=eastwest;" parent="zpq8vRSItgAAJAuEnpTP-1" vertex="1">
          <mxGeometry y="60" width="560" height="10" as="geometry" />
        </mxCell>
        <mxCell id="zpq8vRSItgAAJAuEnpTP-4" value="+ copy(tgt: StringState, value?: string): StringState" style="text;align=left;verticalAlign=top;spacingLeft=4;spacingRight=4;overflow=hidden;rotatable=0;points=[[0,0.5],[1,0.5]];portConstraint=eastwest;" parent="zpq8vRSItgAAJAuEnpTP-1" vertex="1">
          <mxGeometry y="70" width="560" height="26" as="geometry" />
        </mxCell>
        <mxCell id="zpq8vRSItgAAJAuEnpTP-40" value="+ create(value?: string): StringState" style="text;align=left;verticalAlign=top;spacingLeft=4;spacingRight=4;overflow=hidden;rotatable=0;points=[[0,0.5],[1,0.5]];portConstraint=eastwest;" parent="zpq8vRSItgAAJAuEnpTP-1" vertex="1">
          <mxGeometry y="96" width="560" height="26" as="geometry" />
        </mxCell>
        <mxCell id="zpq8vRSItgAAJAuEnpTP-41" value="+ createOrDefault(newValue: string | undefined, _default: StringState): StringState" style="text;align=left;verticalAlign=top;spacingLeft=4;spacingRight=4;overflow=hidden;rotatable=0;points=[[0,0.5],[1,0.5]];portConstraint=eastwest;" parent="zpq8vRSItgAAJAuEnpTP-1" vertex="1">
          <mxGeometry y="122" width="560" height="28" as="geometry" />
        </mxCell>
        <mxCell id="zpq8vRSItgAAJAuEnpTP-42" value="+ &lt;&lt;abstract&gt;&gt; validate(tgt: StringState): Status" style="text;align=left;verticalAlign=top;spacingLeft=4;spacingRight=4;overflow=hidden;rotatable=0;points=[[0,0.5],[1,0.5]];portConstraint=eastwest;" parent="zpq8vRSItgAAJAuEnpTP-1" vertex="1">
          <mxGeometry y="150" width="560" height="26" as="geometry" />
        </mxCell>
        <mxCell id="zpq8vRSItgAAJAuEnpTP-43" value="+ checkIsNumber(tgt: StringState): number" style="text;align=left;verticalAlign=top;spacingLeft=4;spacingRight=4;overflow=hidden;rotatable=0;points=[[0,0.5],[1,0.5]];portConstraint=eastwest;" parent="zpq8vRSItgAAJAuEnpTP-1" vertex="1">
          <mxGeometry y="176" width="560" height="26" as="geometry" />
        </mxCell>
        <mxCell id="zpq8vRSItgAAJAuEnpTP-44" value="+ checkIsNumberOrBlank(tgt: StringState): number" style="text;align=left;verticalAlign=top;spacingLeft=4;spacingRight=4;overflow=hidden;rotatable=0;points=[[0,0.5],[1,0.5]];portConstraint=eastwest;" parent="zpq8vRSItgAAJAuEnpTP-1" vertex="1">
          <mxGeometry y="202" width="560" height="26" as="geometry" />
        </mxCell>
        <mxCell id="zpq8vRSItgAAJAuEnpTP-45" value="+ checkIsNotBlank(tgt: StringState): boolean" style="text;align=left;verticalAlign=top;spacingLeft=4;spacingRight=4;overflow=hidden;rotatable=0;points=[[0,0.5],[1,0.5]];portConstraint=eastwest;" parent="zpq8vRSItgAAJAuEnpTP-1" vertex="1">
          <mxGeometry y="228" width="560" height="26" as="geometry" />
        </mxCell>
        <mxCell id="zpq8vRSItgAAJAuEnpTP-46" value="+Â checkInRange(tgt: StringState, value: string | number, min: number, max: number): boolean" style="text;align=left;verticalAlign=top;spacingLeft=4;spacingRight=4;overflow=hidden;rotatable=0;points=[[0,0.5],[1,0.5]];portConstraint=eastwest;" parent="zpq8vRSItgAAJAuEnpTP-1" vertex="1">
          <mxGeometry y="254" width="560" height="26" as="geometry" />
        </mxCell>
        <mxCell id="zpq8vRSItgAAJAuEnpTP-47" value="+Â checkIsInteger(tgt: StringState, value: number | string): boolean" style="text;align=left;verticalAlign=top;spacingLeft=4;spacingRight=4;overflow=hidden;rotatable=0;points=[[0,0.5],[1,0.5]];portConstraint=eastwest;" parent="zpq8vRSItgAAJAuEnpTP-1" vertex="1">
          <mxGeometry y="280" width="560" height="26" as="geometry" />
        </mxCell>
        <mxCell id="zpq8vRSItgAAJAuEnpTP-13" value="+ &lt;&lt;abstract&gt;&gt;Â normalized(s?: string): string" style="text;align=left;verticalAlign=top;spacingLeft=4;spacingRight=4;overflow=hidden;rotatable=0;points=[[0,0.5],[1,0.5]];portConstraint=eastwest;" parent="zpq8vRSItgAAJAuEnpTP-1" vertex="1">
          <mxGeometry y="306" width="560" height="26" as="geometry" />
        </mxCell>
        <mxCell id="zpq8vRSItgAAJAuEnpTP-22" value="&lt;&lt;Interface&gt;&gt;&#xa;StringState" style="swimlane;fontStyle=1;align=center;verticalAlign=top;childLayout=stackLayout;horizontal=1;startSize=40;horizontalStack=0;resizeParent=1;resizeLast=0;collapsible=1;marginBottom=0;rounded=0;shadow=0;strokeWidth=1;" parent="WIyWlLk6GJQsqaUBKTNV-1" vertex="1">
          <mxGeometry x="240" y="400" width="160" height="80" as="geometry">
            <mxRectangle x="720" y="863" width="160" height="40" as="alternateBounds" />
          </mxGeometry>
        </mxCell>
        <mxCell id="zpq8vRSItgAAJAuEnpTP-23" value="+ value: string" style="text;align=left;verticalAlign=top;spacingLeft=4;spacingRight=4;overflow=hidden;rotatable=0;points=[[0,0.5],[1,0.5]];portConstraint=eastwest;" parent="zpq8vRSItgAAJAuEnpTP-22" vertex="1">
          <mxGeometry y="40" width="160" height="24" as="geometry" />
        </mxCell>
        <mxCell id="mDlujh2QaSkVrH4Tr2XT-2" value="" style="endArrow=block;dashed=1;endFill=0;endSize=12;html=1;rounded=0;edgeStyle=orthogonalEdgeStyle;" parent="WIyWlLk6GJQsqaUBKTNV-1" edge="1">
          <mxGeometry width="160" relative="1" as="geometry">
            <mxPoint x="520" y="185.94" as="sourcePoint" />
            <mxPoint x="400" y="185.94" as="targetPoint" />
            <Array as="points">
              <mxPoint x="460" y="185.94" />
              <mxPoint x="460" y="185.94" />
            </Array>
          </mxGeometry>
        </mxCell>
        <mxCell id="mDlujh2QaSkVrH4Tr2XT-4" value="Implements" style="edgeLabel;html=1;align=center;verticalAlign=middle;resizable=0;points=[];" parent="mDlujh2QaSkVrH4Tr2XT-2" vertex="1" connectable="0">
          <mxGeometry x="-0.112" y="1" relative="1" as="geometry">
            <mxPoint y="-15" as="offset" />
          </mxGeometry>
        </mxCell>
        <mxCell id="mDlujh2QaSkVrH4Tr2XT-3" value="Extends" style="endArrow=block;endSize=16;endFill=0;html=1;rounded=0;exitX=0.5;exitY=0;exitDx=0;exitDy=0;entryX=0.5;entryY=1;entryDx=0;entryDy=0;" parent="WIyWlLk6GJQsqaUBKTNV-1" source="zpq8vRSItgAAJAuEnpTP-1" target="zkfFHV4jXpPFQw0GAbJ--0" edge="1">
          <mxGeometry x="-0.2308" width="160" relative="1" as="geometry">
            <mxPoint x="800" y="450" as="sourcePoint" />
            <mxPoint x="810" y="410" as="targetPoint" />
            <mxPoint as="offset" />
          </mxGeometry>
        </mxCell>
        <mxCell id="mDlujh2QaSkVrH4Tr2XT-6" value="" style="endArrow=open;endSize=12;dashed=1;html=1;rounded=0;edgeStyle=orthogonalEdgeStyle;" parent="WIyWlLk6GJQsqaUBKTNV-1" source="zpq8vRSItgAAJAuEnpTP-1" target="zpq8vRSItgAAJAuEnpTP-22" edge="1">
          <mxGeometry width="160" relative="1" as="geometry">
            <mxPoint x="860" y="540" as="sourcePoint" />
            <mxPoint x="1100" y="580" as="targetPoint" />
            <Array as="points">
              <mxPoint x="320" y="660" />
            </Array>
          </mxGeometry>
        </mxCell>
        <mxCell id="mDlujh2QaSkVrH4Tr2XT-8" value="Extends" style="endArrow=block;endSize=16;endFill=0;html=1;rounded=0;edgeStyle=orthogonalEdgeStyle;exitX=0.5;exitY=0;exitDx=0;exitDy=0;entryX=0.5;entryY=1;entryDx=0;entryDy=0;" parent="WIyWlLk6GJQsqaUBKTNV-1" source="zpq8vRSItgAAJAuEnpTP-22" target="zqKWcog5aO0XvaUyvHrO-13" edge="1">
          <mxGeometry x="-0.2308" width="160" relative="1" as="geometry">
            <mxPoint x="240" y="300" as="sourcePoint" />
            <mxPoint x="160" y="130" as="targetPoint" />
            <mxPoint as="offset" />
          </mxGeometry>
        </mxCell>
        <mxCell id="zqKWcog5aO0XvaUyvHrO-28" style="edgeStyle=orthogonalEdgeStyle;rounded=0;orthogonalLoop=1;jettySize=auto;html=1;" parent="WIyWlLk6GJQsqaUBKTNV-1" source="zqKWcog5aO0XvaUyvHrO-24" target="zqKWcog5aO0XvaUyvHrO-29" edge="1">
          <mxGeometry relative="1" as="geometry">
            <mxPoint x="130" y="10" as="targetPoint" />
            <Array as="points">
              <mxPoint x="200" y="172" />
              <mxPoint x="200" y="190" />
            </Array>
          </mxGeometry>
        </mxCell>
        <mxCell id="RHHcvnVVeXEGe-ZPyuKG-0" value="StringStateRecordHandler" style="swimlane;fontStyle=3;align=center;verticalAlign=top;childLayout=stackLayout;horizontal=1;startSize=36;horizontalStack=0;resizeParent=1;resizeLast=0;collapsible=1;marginBottom=0;rounded=0;shadow=0;strokeWidth=1;" parent="WIyWlLk6GJQsqaUBKTNV-1" vertex="1">
          <mxGeometry x="520" y="860" width="470" height="150" as="geometry">
            <mxRectangle x="-5" y="460" width="160" height="36" as="alternateBounds" />
          </mxGeometry>
        </mxCell>
        <mxCell id="RHHcvnVVeXEGe-ZPyuKG-1" value="readonly abstract handlers: Record&lt;keyof K, StringStateHandler | ((arg?: any) =&gt; any)&gt;" style="text;align=left;verticalAlign=top;spacingLeft=4;spacingRight=4;overflow=hidden;rotatable=0;points=[[0,0.5],[1,0.5]];portConstraint=eastwest;" parent="RHHcvnVVeXEGe-ZPyuKG-0" vertex="1">
          <mxGeometry y="36" width="470" height="24" as="geometry" />
        </mxCell>
        <mxCell id="RHHcvnVVeXEGe-ZPyuKG-2" value="" style="line;html=1;strokeWidth=1;align=left;verticalAlign=middle;spacingTop=-1;spacingLeft=3;spacingRight=3;rotatable=0;labelPosition=right;points=[];portConstraint=eastwest;" parent="RHHcvnVVeXEGe-ZPyuKG-0" vertex="1">
          <mxGeometry y="60" width="470" height="10" as="geometry" />
        </mxCell>
        <mxCell id="RHHcvnVVeXEGe-ZPyuKG-3" value="+ create(kwargs: K): R" style="text;align=left;verticalAlign=top;spacingLeft=4;spacingRight=4;overflow=hidden;rotatable=0;points=[[0,0.5],[1,0.5]];portConstraint=eastwest;" parent="RHHcvnVVeXEGe-ZPyuKG-0" vertex="1">
          <mxGeometry y="70" width="470" height="26" as="geometry" />
        </mxCell>
        <mxCell id="RHHcvnVVeXEGe-ZPyuKG-4" value="+ update(tgt: R, kwargs: K): R" style="text;align=left;verticalAlign=top;spacingLeft=4;spacingRight=4;overflow=hidden;rotatable=0;points=[[0,0.5],[1,0.5]];portConstraint=eastwest;" parent="RHHcvnVVeXEGe-ZPyuKG-0" vertex="1">
          <mxGeometry y="96" width="470" height="26" as="geometry" />
        </mxCell>
        <mxCell id="RHHcvnVVeXEGe-ZPyuKG-5" value="+ validate(tgt: R): Status" style="text;align=left;verticalAlign=top;spacingLeft=4;spacingRight=4;overflow=hidden;rotatable=0;points=[[0,0.5],[1,0.5]];portConstraint=eastwest;" parent="RHHcvnVVeXEGe-ZPyuKG-0" vertex="1">
          <mxGeometry y="122" width="470" height="28" as="geometry" />
        </mxCell>
        <mxCell id="RHHcvnVVeXEGe-ZPyuKG-13" value="R extends Verifiable" style="endArrow=block;endSize=16;endFill=0;html=1;rounded=0;edgeStyle=orthogonalEdgeStyle;exitX=0;exitY=0.5;exitDx=0;exitDy=0;entryX=0.25;entryY=1;entryDx=0;entryDy=0;" parent="WIyWlLk6GJQsqaUBKTNV-1" edge="1" target="zqKWcog5aO0XvaUyvHrO-13" source="RHHcvnVVeXEGe-ZPyuKG-1">
          <mxGeometry x="-0.2308" width="160" relative="1" as="geometry">
            <mxPoint x="238.57" y="920" as="sourcePoint" />
            <mxPoint x="130" y="630" as="targetPoint" />
            <mxPoint as="offset" />
            <Array as="points">
              <mxPoint x="520" y="920" />
              <mxPoint x="230" y="920" />
              <mxPoint x="230" y="380" />
              <mxPoint x="280" y="380" />
            </Array>
          </mxGeometry>
        </mxCell>
        <mxCell id="P-u9-j0PSRYH5Cga72Mo-1" value="extends" style="endArrow=block;endSize=16;endFill=0;html=1;rounded=0;edgeStyle=orthogonalEdgeStyle;exitX=1;exitY=0.5;exitDx=0;exitDy=0;entryX=1.008;entryY=0.144;entryDx=0;entryDy=0;entryPerimeter=0;" edge="1" parent="WIyWlLk6GJQsqaUBKTNV-1" source="RHHcvnVVeXEGe-ZPyuKG-1" target="zqKWcog5aO0XvaUyvHrO-9">
          <mxGeometry x="-0.2308" width="160" relative="1" as="geometry">
            <mxPoint x="530" y="918" as="sourcePoint" />
            <mxPoint x="290" y="250" as="targetPoint" />
            <mxPoint as="offset" />
            <Array as="points">
              <mxPoint x="990" y="918" />
              <mxPoint x="1120" y="918" />
              <mxPoint x="1120" y="350" />
            </Array>
          </mxGeometry>
        </mxCell>
        <mxCell id="P-u9-j0PSRYH5Cga72Mo-2" value="StringStateTableHandler" style="swimlane;fontStyle=3;align=center;verticalAlign=top;childLayout=stackLayout;horizontal=1;startSize=36;horizontalStack=0;resizeParent=1;resizeLast=0;collapsible=1;marginBottom=0;rounded=0;shadow=0;strokeWidth=1;" vertex="1" parent="WIyWlLk6GJQsqaUBKTNV-1">
          <mxGeometry x="520" y="1030" width="370" height="262" as="geometry">
            <mxRectangle x="-5" y="460" width="160" height="36" as="alternateBounds" />
          </mxGeometry>
        </mxCell>
        <mxCell id="P-u9-j0PSRYH5Cga72Mo-3" value="- rowHandler: StringStateRecordHandler&lt;R, K&gt;" style="text;align=left;verticalAlign=top;spacingLeft=4;spacingRight=4;overflow=hidden;rotatable=0;points=[[0,0.5],[1,0.5]];portConstraint=eastwest;" vertex="1" parent="P-u9-j0PSRYH5Cga72Mo-2">
          <mxGeometry y="36" width="370" height="24" as="geometry" />
        </mxCell>
        <mxCell id="P-u9-j0PSRYH5Cga72Mo-4" value="" style="line;html=1;strokeWidth=1;align=left;verticalAlign=middle;spacingTop=-1;spacingLeft=3;spacingRight=3;rotatable=0;labelPosition=right;points=[];portConstraint=eastwest;" vertex="1" parent="P-u9-j0PSRYH5Cga72Mo-2">
          <mxGeometry y="60" width="370" height="10" as="geometry" />
        </mxCell>
        <mxCell id="P-u9-j0PSRYH5Cga72Mo-5" value="constructor(rowHandler: StringStateRecordHandler&lt;R, K&gt;)" style="text;align=left;verticalAlign=top;spacingLeft=4;spacingRight=4;overflow=hidden;rotatable=0;points=[[0,0.5],[1,0.5]];portConstraint=eastwest;" vertex="1" parent="P-u9-j0PSRYH5Cga72Mo-2">
          <mxGeometry y="70" width="370" height="26" as="geometry" />
        </mxCell>
        <mxCell id="P-u9-j0PSRYH5Cga72Mo-6" value="+ validate(tgt: StringStateTable&lt;R&gt;): Status" style="text;align=left;verticalAlign=top;spacingLeft=4;spacingRight=4;overflow=hidden;rotatable=0;points=[[0,0.5],[1,0.5]];portConstraint=eastwest;" vertex="1" parent="P-u9-j0PSRYH5Cga72Mo-2">
          <mxGeometry y="96" width="370" height="26" as="geometry" />
        </mxCell>
        <mxCell id="P-u9-j0PSRYH5Cga72Mo-7" value="+ createDefault(): StringStateTable&lt;R&gt;" style="text;align=left;verticalAlign=top;spacingLeft=4;spacingRight=4;overflow=hidden;rotatable=0;points=[[0,0.5],[1,0.5]];portConstraint=eastwest;" vertex="1" parent="P-u9-j0PSRYH5Cga72Mo-2">
          <mxGeometry y="122" width="370" height="28" as="geometry" />
        </mxCell>
        <mxCell id="P-u9-j0PSRYH5Cga72Mo-10" value="+ insertRow(tgt: StringStateTable&lt;R&gt;, idx: number | null, kwargs: K): R" style="text;align=left;verticalAlign=top;spacingLeft=4;spacingRight=4;overflow=hidden;rotatable=0;points=[[0,0.5],[1,0.5]];portConstraint=eastwest;" vertex="1" parent="P-u9-j0PSRYH5Cga72Mo-2">
          <mxGeometry y="150" width="370" height="28" as="geometry" />
        </mxCell>
        <mxCell id="P-u9-j0PSRYH5Cga72Mo-11" value="+ duplicateRow(tgt: StringStateTable&lt;R&gt;, idx: number): R" style="text;align=left;verticalAlign=top;spacingLeft=4;spacingRight=4;overflow=hidden;rotatable=0;points=[[0,0.5],[1,0.5]];portConstraint=eastwest;" vertex="1" parent="P-u9-j0PSRYH5Cga72Mo-2">
          <mxGeometry y="178" width="370" height="28" as="geometry" />
        </mxCell>
        <mxCell id="P-u9-j0PSRYH5Cga72Mo-12" value="+ updateRow(tgt: StringStateTable&lt;R&gt;, idx: number, kwargs: K)" style="text;align=left;verticalAlign=top;spacingLeft=4;spacingRight=4;overflow=hidden;rotatable=0;points=[[0,0.5],[1,0.5]];portConstraint=eastwest;" vertex="1" parent="P-u9-j0PSRYH5Cga72Mo-2">
          <mxGeometry y="206" width="370" height="28" as="geometry" />
        </mxCell>
        <mxCell id="P-u9-j0PSRYH5Cga72Mo-13" value="+ deleteRow(tgt: StringStateTable&lt;R&gt;, idx: number)" style="text;align=left;verticalAlign=top;spacingLeft=4;spacingRight=4;overflow=hidden;rotatable=0;points=[[0,0.5],[1,0.5]];portConstraint=eastwest;" vertex="1" parent="P-u9-j0PSRYH5Cga72Mo-2">
          <mxGeometry y="234" width="370" height="28" as="geometry" />
        </mxCell>
        <mxCell id="P-u9-j0PSRYH5Cga72Mo-8" value="R extends Verifiable" style="endArrow=block;endSize=16;endFill=0;html=1;rounded=0;edgeStyle=orthogonalEdgeStyle;exitX=0;exitY=0.5;exitDx=0;exitDy=0;entryX=0;entryY=1;entryDx=0;entryDy=0;" edge="1" parent="WIyWlLk6GJQsqaUBKTNV-1" source="P-u9-j0PSRYH5Cga72Mo-5" target="zqKWcog5aO0XvaUyvHrO-13">
          <mxGeometry x="-0.2971" width="160" relative="1" as="geometry">
            <mxPoint x="530" y="918" as="sourcePoint" />
            <mxPoint x="290" y="250" as="targetPoint" />
            <mxPoint as="offset" />
            <Array as="points">
              <mxPoint x="520" y="1110" />
              <mxPoint x="210" y="1110" />
              <mxPoint x="210" y="370" />
              <mxPoint x="230" y="370" />
              <mxPoint x="230" y="300" />
              <mxPoint x="210" y="300" />
              <mxPoint x="210" y="240" />
            </Array>
          </mxGeometry>
        </mxCell>
        <mxCell id="P-u9-j0PSRYH5Cga72Mo-9" style="edgeStyle=orthogonalEdgeStyle;rounded=0;orthogonalLoop=1;jettySize=auto;html=1;entryX=0;entryY=0.5;entryDx=0;entryDy=0;" edge="1" parent="WIyWlLk6GJQsqaUBKTNV-1" source="P-u9-j0PSRYH5Cga72Mo-3" target="RHHcvnVVeXEGe-ZPyuKG-3">
          <mxGeometry relative="1" as="geometry">
            <Array as="points">
              <mxPoint x="450" y="1078" />
              <mxPoint x="450" y="943" />
            </Array>
          </mxGeometry>
        </mxCell>
        <mxCell id="P-u9-j0PSRYH5Cga72Mo-14" value="StringStringStateHandler" style="swimlane;fontStyle=3;align=center;verticalAlign=top;childLayout=stackLayout;horizontal=1;startSize=36;horizontalStack=0;resizeParent=1;resizeLast=0;collapsible=1;marginBottom=0;rounded=0;shadow=0;strokeWidth=1;" vertex="1" parent="WIyWlLk6GJQsqaUBKTNV-1">
          <mxGeometry x="1200" y="560" width="460" height="200" as="geometry">
            <mxRectangle x="-5" y="460" width="160" height="36" as="alternateBounds" />
          </mxGeometry>
        </mxCell>
        <mxCell id="P-u9-j0PSRYH5Cga72Mo-15" value="- maxLength" style="text;align=left;verticalAlign=top;spacingLeft=4;spacingRight=4;overflow=hidden;rotatable=0;points=[[0,0.5],[1,0.5]];portConstraint=eastwest;" vertex="1" parent="P-u9-j0PSRYH5Cga72Mo-14">
          <mxGeometry y="36" width="460" height="24" as="geometry" />
        </mxCell>
        <mxCell id="P-u9-j0PSRYH5Cga72Mo-29" value="- minLength" style="text;align=left;verticalAlign=top;spacingLeft=4;spacingRight=4;overflow=hidden;rotatable=0;points=[[0,0.5],[1,0.5]];portConstraint=eastwest;" vertex="1" parent="P-u9-j0PSRYH5Cga72Mo-14">
          <mxGeometry y="60" width="460" height="24" as="geometry" />
        </mxCell>
        <mxCell id="P-u9-j0PSRYH5Cga72Mo-30" value="- required" style="text;align=left;verticalAlign=top;spacingLeft=4;spacingRight=4;overflow=hidden;rotatable=0;points=[[0,0.5],[1,0.5]];portConstraint=eastwest;" vertex="1" parent="P-u9-j0PSRYH5Cga72Mo-14">
          <mxGeometry y="84" width="460" height="24" as="geometry" />
        </mxCell>
        <mxCell id="P-u9-j0PSRYH5Cga72Mo-16" value="" style="line;html=1;strokeWidth=1;align=left;verticalAlign=middle;spacingTop=-1;spacingLeft=3;spacingRight=3;rotatable=0;labelPosition=right;points=[];portConstraint=eastwest;" vertex="1" parent="P-u9-j0PSRYH5Cga72Mo-14">
          <mxGeometry y="108" width="460" height="10" as="geometry" />
        </mxCell>
        <mxCell id="P-u9-j0PSRYH5Cga72Mo-17" value="constructor(minLength: number, maxLength: number = 0, required: boolean = false)" style="text;align=left;verticalAlign=top;spacingLeft=4;spacingRight=4;overflow=hidden;rotatable=0;points=[[0,0.5],[1,0.5]];portConstraint=eastwest;" vertex="1" parent="P-u9-j0PSRYH5Cga72Mo-14">
          <mxGeometry y="118" width="460" height="26" as="geometry" />
        </mxCell>
        <mxCell id="P-u9-j0PSRYH5Cga72Mo-18" value="+Â validate(tgt: StringState): Status" style="text;align=left;verticalAlign=top;spacingLeft=4;spacingRight=4;overflow=hidden;rotatable=0;points=[[0,0.5],[1,0.5]];portConstraint=eastwest;" vertex="1" parent="P-u9-j0PSRYH5Cga72Mo-14">
          <mxGeometry y="144" width="460" height="26" as="geometry" />
        </mxCell>
        <mxCell id="P-u9-j0PSRYH5Cga72Mo-19" value="+Â normalized(s?: string | undefined): string" style="text;align=left;verticalAlign=top;spacingLeft=4;spacingRight=4;overflow=hidden;rotatable=0;points=[[0,0.5],[1,0.5]];portConstraint=eastwest;" vertex="1" parent="P-u9-j0PSRYH5Cga72Mo-14">
          <mxGeometry y="170" width="460" height="28" as="geometry" />
        </mxCell>
        <mxCell id="P-u9-j0PSRYH5Cga72Mo-28" value="Extends" style="endArrow=block;endSize=16;endFill=0;html=1;rounded=0;exitX=-0.002;exitY=1.208;exitDx=0;exitDy=0;entryX=1;entryY=0.5;entryDx=0;entryDy=0;exitPerimeter=0;" edge="1" parent="WIyWlLk6GJQsqaUBKTNV-1" source="P-u9-j0PSRYH5Cga72Mo-30" target="zpq8vRSItgAAJAuEnpTP-43">
          <mxGeometry x="-0.2308" width="160" relative="1" as="geometry">
            <mxPoint x="1200" y="677" as="sourcePoint" />
            <mxPoint x="1240" y="400" as="targetPoint" />
            <mxPoint as="offset" />
          </mxGeometry>
        </mxCell>
      </root>
    </mxGraphModel>
  </diagram>
</mxfile>
